<?xml version="1.0" encoding="utf-8"?>
<!-- Generator: Adobe Illustrator 19.2.1, SVG Export Plug-In . SVG Version: 6.00 Build 0)  -->
<svg version="1.1" id="Layer_1" xmlns="http://www.w3.org/2000/svg" xmlns:xlink="http://www.w3.org/1999/xlink" x="0px" y="0px"
	 viewBox="0 0 60 35" style="enable-background:new 0 0 60 35;" xml:space="preserve">
<style type="text/css">
	.st0{clip-path:url(#SVGID_2_);}
	.st1{clip-path:url(#SVGID_4_);fill:#51BD9B;}
	.st2{clip-path:url(#SVGID_6_);}
	.st3{clip-path:url(#SVGID_8_);fill:#51BD9B;}
	.st4{clip-path:url(#SVGID_10_);}
	.st5{clip-path:url(#SVGID_12_);fill:#51BD9B;}
	.st6{clip-path:url(#SVGID_14_);}
	.st7{clip-path:url(#SVGID_16_);fill:#51BD9B;}
</style>
<g>
	<g>
		<defs>
			<path id="SVGID_1_" d="M14.8,34.6c-0.3,0-0.6-0.3-0.6-0.6V17.4l14.8-5.7c0.3-0.1,0.7,0,0.8,0.3c0.1,0.3,0,0.7-0.3,0.8l-14,5.4V34
				C15.4,34.3,15.2,34.6,14.8,34.6"/>
		</defs>
		<clipPath id="SVGID_2_">
			<use xlink:href="#SVGID_1_"  style="overflow:visible;"/>
		</clipPath>
		<g class="st0">
			<defs>
				<rect id="SVGID_3_" x="-29.2" y="-565.2" width="2880" height="3416"/>
			</defs>
			<clipPath id="SVGID_4_">
				<use xlink:href="#SVGID_3_"  style="overflow:visible;"/>
			</clipPath>
			<rect x="4.2" y="1.7" class="st1" width="35.6" height="42.9"/>
		</g>
	</g>
	<g>
		<g>
			<defs>
				<path id="SVGID_5_" d="M14.8,34.8c-0.4,0-0.8-0.4-0.8-0.8V17.3l15-5.8c0.4-0.2,0.9,0.1,1.1,0.5c0.1,0.2,0.1,0.4,0,0.6
					c-0.1,0.2-0.3,0.4-0.5,0.4l-13.9,5.4V34C15.7,34.4,15.3,34.8,14.8,34.8z M14.5,17.6V34c0,0.2,0.2,0.4,0.4,0.4
					c0.2,0,0.4-0.2,0.4-0.4V18.1l14.2-5.5c0.1,0,0.2-0.1,0.2-0.2s0-0.2,0-0.3c-0.1-0.2-0.3-0.3-0.5-0.2L14.5,17.6z"/>
			</defs>
			<clipPath id="SVGID_6_">
				<use xlink:href="#SVGID_5_"  style="overflow:visible;"/>
			</clipPath>
			<g class="st2">
				<defs>
					<rect id="SVGID_7_" x="-29.2" y="-565.2" width="2880" height="3416"/>
				</defs>
				<clipPath id="SVGID_8_">
					<use xlink:href="#SVGID_7_"  style="overflow:visible;"/>
				</clipPath>
				<rect x="4" y="1.5" class="st3" width="36.1" height="43.3"/>
			</g>
		</g>
		<g>
			<defs>
				<path id="SVGID_9_" d="M30,25.5c-0.1,0-0.2,0-0.3-0.1L0.5,13.7C0.2,13.5,0,13.2,0,12.9s0.2-0.7,0.5-0.8L29.7,0.3
					c0.2-0.1,0.4-0.1,0.7,0l29.1,11.8c0.3,0.1,0.5,0.5,0.5,0.8s-0.2,0.7-0.5,0.8L30.3,25.4C30.2,25.5,30.1,25.5,30,25.5z M3.2,12.9
					L30,23.7l26.8-10.8L30,2L3.2,12.9z"/>
			</defs>
			<clipPath id="SVGID_10_">
				<use xlink:href="#SVGID_9_"  style="overflow:visible;"/>
			</clipPath>
			<g class="st4">
				<defs>
					<rect id="SVGID_11_" x="-29.2" y="-565.2" width="2880" height="3416"/>
				</defs>
				<clipPath id="SVGID_12_">
					<use xlink:href="#SVGID_11_"  style="overflow:visible;"/>
				</clipPath>
				<rect x="-10" y="-9.8" class="st5" width="80" height="45.3"/>
			</g>
		</g>
		<g>
			<defs>
				<path id="SVGID_13_" d="M30.5,33.1c-11.3,0-20.1-4.1-20.1-9.4v-6.4c0-0.5,0.4-0.9,0.9-0.9c0.5,0,0.9,0.4,0.9,0.9v6.4
					c0,4.1,8.4,7.6,18.4,7.6c10,0,18.4-3.5,18.4-7.6v-6.4c0-0.5,0.4-0.9,0.9-0.9c0.5,0,0.9,0.4,0.9,0.9v6.4
					C50.6,29,41.8,33.1,30.5,33.1"/>
			</defs>
			<clipPath id="SVGID_14_">
				<use xlink:href="#SVGID_13_"  style="overflow:visible;"/>
			</clipPath>
			<g class="st6">
				<defs>
					<rect id="SVGID_15_" x="-29.2" y="-565.2" width="2880" height="3416"/>
				</defs>
				<clipPath id="SVGID_16_">
					<use xlink:href="#SVGID_15_"  style="overflow:visible;"/>
				</clipPath>
				<rect x="0.4" y="6.5" class="st7" width="60.3" height="36.6"/>
			</g>
		</g>
	</g>
</g>
</svg>
