<?xml version="1.0" encoding="utf-8"?>
<!-- Generator: Adobe Illustrator 19.2.1, SVG Export Plug-In . SVG Version: 6.00 Build 0)  -->
<svg version="1.1" id="Layer_1" xmlns="http://www.w3.org/2000/svg" xmlns:xlink="http://www.w3.org/1999/xlink" x="0px" y="0px"
	 viewBox="0 0 60 60" style="enable-background:new 0 0 60 60;" xml:space="preserve">
<style type="text/css">
	.st0{clip-path:url(#SVGID_2_);}
	.st1{clip-path:url(#SVGID_4_);fill:#FFFFFF;}
	.st2{clip-path:url(#SVGID_6_);}
	.st3{clip-path:url(#SVGID_8_);fill:#FFFFFF;}
	.st4{clip-path:url(#SVGID_10_);}
	.st5{clip-path:url(#SVGID_12_);fill:#FFFFFF;}
	.st6{clip-path:url(#SVGID_14_);}
	.st7{clip-path:url(#SVGID_16_);fill:#FFFFFF;}
	.st8{clip-path:url(#SVGID_18_);}
	.st9{clip-path:url(#SVGID_20_);fill:#FFFFFF;}
	.st10{clip-path:url(#SVGID_22_);}
	.st11{clip-path:url(#SVGID_24_);fill:#FFFFFF;}
	.st12{clip-path:url(#SVGID_26_);}
	.st13{clip-path:url(#SVGID_28_);fill:#FFFFFF;}
	.st14{clip-path:url(#SVGID_30_);}
	.st15{clip-path:url(#SVGID_32_);fill:#FFFFFF;}
</style>
<g>
	<g>
		<defs>
			<path id="SVGID_1_" d="M52.3,22H7.7c-0.8,0-1.4-0.6-1.4-1.4c0-0.8,0.6-1.4,1.4-1.4h44.5c0.8,0,1.4,0.6,1.4,1.4
				C53.7,21.4,53,22,52.3,22"/>
		</defs>
		<clipPath id="SVGID_2_">
			<use xlink:href="#SVGID_1_"  style="overflow:visible;"/>
		</clipPath>
		<g class="st0">
			<defs>
				<rect id="SVGID_3_" x="-27.9" y="-432" width="2880" height="3416"/>
			</defs>
			<clipPath id="SVGID_4_">
				<use xlink:href="#SVGID_3_"  style="overflow:visible;"/>
			</clipPath>
			<rect x="-3.7" y="9.2" class="st1" width="67.4" height="22.9"/>
		</g>
	</g>
	<g>
		<defs>
			<path id="SVGID_5_" d="M52.3,31.4H7.7c-0.8,0-1.4-0.6-1.4-1.4c0-0.8,0.6-1.4,1.4-1.4h44.5c0.8,0,1.4,0.6,1.4,1.4
				C53.7,30.7,53,31.4,52.3,31.4"/>
		</defs>
		<clipPath id="SVGID_6_">
			<use xlink:href="#SVGID_5_"  style="overflow:visible;"/>
		</clipPath>
		<g class="st2">
			<defs>
				<rect id="SVGID_7_" x="-27.9" y="-432" width="2880" height="3416"/>
			</defs>
			<clipPath id="SVGID_8_">
				<use xlink:href="#SVGID_7_"  style="overflow:visible;"/>
			</clipPath>
			<rect x="-3.7" y="18.5" class="st3" width="67.4" height="22.9"/>
		</g>
	</g>
	<g>
		<defs>
			<path id="SVGID_9_" d="M52.3,40.8H7.7c-0.8,0-1.4-0.6-1.4-1.4c0-0.8,0.6-1.4,1.4-1.4h44.5c0.8,0,1.4,0.6,1.4,1.4
				C53.7,40.1,53,40.8,52.3,40.8"/>
		</defs>
		<clipPath id="SVGID_10_">
			<use xlink:href="#SVGID_9_"  style="overflow:visible;"/>
		</clipPath>
		<g class="st4">
			<defs>
				<rect id="SVGID_11_" x="-27.9" y="-432" width="2880" height="3416"/>
			</defs>
			<clipPath id="SVGID_12_">
				<use xlink:href="#SVGID_11_"  style="overflow:visible;"/>
			</clipPath>
			<rect x="-3.7" y="27.9" class="st5" width="67.4" height="22.9"/>
		</g>
	</g>
	<g>
		<defs>
			<path id="SVGID_13_" d="M41.1,50.1H7.7c-0.8,0-1.4-0.6-1.4-1.4c0-0.8,0.6-1.4,1.4-1.4h33.4c0.8,0,1.4,0.6,1.4,1.4
				C42.6,49.5,41.9,50.1,41.1,50.1"/>
		</defs>
		<clipPath id="SVGID_14_">
			<use xlink:href="#SVGID_13_"  style="overflow:visible;"/>
		</clipPath>
		<g class="st6">
			<defs>
				<rect id="SVGID_15_" x="-27.9" y="-432" width="2880" height="3416"/>
			</defs>
			<clipPath id="SVGID_16_">
				<use xlink:href="#SVGID_15_"  style="overflow:visible;"/>
			</clipPath>
			<rect x="-3.7" y="37.3" class="st7" width="56.2" height="22.9"/>
		</g>
	</g>
	<g>
		<defs>
			<path id="SVGID_17_" d="M18.9,59.5c-0.8,0-1.4-0.6-1.4-1.4V20.6c0-0.8,0.6-1.4,1.4-1.4s1.4,0.6,1.4,1.4v37.5
				C20.3,58.9,19.7,59.5,18.9,59.5"/>
		</defs>
		<clipPath id="SVGID_18_">
			<use xlink:href="#SVGID_17_"  style="overflow:visible;"/>
		</clipPath>
		<g class="st8">
			<defs>
				<rect id="SVGID_19_" x="-27.9" y="-432" width="2880" height="3416"/>
			</defs>
			<clipPath id="SVGID_20_">
				<use xlink:href="#SVGID_19_"  style="overflow:visible;"/>
			</clipPath>
			<rect x="7.4" y="9.2" class="st9" width="22.9" height="60.4"/>
		</g>
	</g>
	<g>
		<defs>
			<path id="SVGID_21_" d="M30,59.5c-0.8,0-1.4-0.6-1.4-1.4V20.6c0-0.8,0.6-1.4,1.4-1.4c0.8,0,1.4,0.6,1.4,1.4v37.5
				C31.4,58.9,30.8,59.5,30,59.5"/>
		</defs>
		<clipPath id="SVGID_22_">
			<use xlink:href="#SVGID_21_"  style="overflow:visible;"/>
		</clipPath>
		<g class="st10">
			<defs>
				<rect id="SVGID_23_" x="-27.9" y="-432" width="2880" height="3416"/>
			</defs>
			<clipPath id="SVGID_24_">
				<use xlink:href="#SVGID_23_"  style="overflow:visible;"/>
			</clipPath>
			<rect x="18.6" y="9.2" class="st11" width="22.9" height="60.4"/>
		</g>
	</g>
	<g>
		<defs>
			<path id="SVGID_25_" d="M41.1,59.5c-0.8,0-1.4-0.6-1.4-1.4V20.6c0-0.8,0.6-1.4,1.4-1.4s1.4,0.6,1.4,1.4v37.5
				C42.6,58.9,41.9,59.5,41.1,59.5"/>
		</defs>
		<clipPath id="SVGID_26_">
			<use xlink:href="#SVGID_25_"  style="overflow:visible;"/>
		</clipPath>
		<g class="st12">
			<defs>
				<rect id="SVGID_27_" x="-27.9" y="-432" width="2880" height="3416"/>
			</defs>
			<clipPath id="SVGID_28_">
				<use xlink:href="#SVGID_27_"  style="overflow:visible;"/>
			</clipPath>
			<rect x="29.7" y="9.2" class="st13" width="22.9" height="60.4"/>
		</g>
	</g>
	<g>
		<defs>
			<path id="SVGID_29_" d="M50.8,60H9.2c-1.6,0-2.9-1.3-2.9-2.9V2.9C6.3,1.3,7.6,0,9.2,0h41.6c1.6,0,2.9,1.3,2.9,2.9v54.2
				C53.7,58.7,52.4,60,50.8,60z M9.2,2.9C9.2,2.9,9.2,2.9,9.2,2.9L9.2,57.1c0,0,0,0.1,0.1,0.1h41.6c0,0,0.1,0,0.1-0.1V2.9
				c0,0,0-0.1-0.1-0.1H9.2z"/>
		</defs>
		<clipPath id="SVGID_30_">
			<use xlink:href="#SVGID_29_"  style="overflow:visible;"/>
		</clipPath>
		<g class="st14">
			<defs>
				<rect id="SVGID_31_" x="-27.9" y="-432" width="2880" height="3416"/>
			</defs>
			<clipPath id="SVGID_32_">
				<use xlink:href="#SVGID_31_"  style="overflow:visible;"/>
			</clipPath>
			<rect x="-3.7" y="-10" class="st15" width="67.4" height="80"/>
		</g>
	</g>
</g>
</svg>
