<?xml version="1.0" encoding="utf-8"?>
<!-- Generator: Adobe Illustrator 19.2.1, SVG Export Plug-In . SVG Version: 6.00 Build 0)  -->
<svg version="1.1" id="Layer_1" xmlns="http://www.w3.org/2000/svg" xmlns:xlink="http://www.w3.org/1999/xlink" x="0px" y="0px"
	 viewBox="0 0 60 60" style="enable-background:new 0 0 60 60;" xml:space="preserve">
<style type="text/css">
	.st0{clip-path:url(#SVGID_2_);}
	.st1{clip-path:url(#SVGID_4_);fill:#51BD9B;}
	.st2{clip-path:url(#SVGID_6_);}
	.st3{clip-path:url(#SVGID_8_);fill:#51BD9B;}
	.st4{clip-path:url(#SVGID_10_);}
	.st5{clip-path:url(#SVGID_12_);fill:#51BD9B;}
	.st6{clip-path:url(#SVGID_14_);}
	.st7{clip-path:url(#SVGID_16_);fill:#51BD9B;}
	.st8{clip-path:url(#SVGID_18_);}
	.st9{clip-path:url(#SVGID_20_);fill:#51BD9B;}
	.st10{clip-path:url(#SVGID_22_);}
	.st11{clip-path:url(#SVGID_24_);fill:#51BD9B;}
	.st12{clip-path:url(#SVGID_26_);}
	.st13{clip-path:url(#SVGID_28_);fill:#51BD9B;}
	.st14{clip-path:url(#SVGID_30_);}
	.st15{clip-path:url(#SVGID_32_);fill:#51BD9B;}
	.st16{clip-path:url(#SVGID_34_);}
	.st17{clip-path:url(#SVGID_36_);fill:#51BD9B;}
	.st18{clip-path:url(#SVGID_38_);}
	.st19{clip-path:url(#SVGID_40_);fill:#51BD9B;}
	.st20{clip-path:url(#SVGID_42_);}
	.st21{clip-path:url(#SVGID_44_);fill:#51BD9B;}
	.st22{clip-path:url(#SVGID_46_);}
	.st23{clip-path:url(#SVGID_48_);fill:#51BD9B;}
	.st24{clip-path:url(#SVGID_50_);}
	.st25{clip-path:url(#SVGID_52_);fill:#51BD9B;}
	.st26{clip-path:url(#SVGID_54_);}
	.st27{clip-path:url(#SVGID_56_);fill:#51BD9B;}
</style>
<g>
	<g>
		<defs>
			<path id="SVGID_1_" d="M29.7,32.2c-0.5,0-0.9-0.2-1.2-0.5c-0.7-0.7-0.7-1.7-0.1-2.3C28.8,29,41.2,18,41.3,17.9l0.3-0.3l0.9,0.9
				l-1.1,1.2c-4.5,5-10.4,11.8-10.7,12C30.5,32.1,30.1,32.2,29.7,32.2 M34,26.2c-3,2.6-4.5,4-4.6,4.1c-0.1,0.1-0.1,0.3,0.1,0.4
				c0.1,0.1,0.4,0.2,0.4,0.1C30,30.7,31.4,29.2,34,26.2 M38.8,21.3l0.1,0.1c0.3-0.4,0.6-0.7,1-1.1C39.6,20.6,39.2,20.9,38.8,21.3"/>
		</defs>
		<clipPath id="SVGID_2_">
			<use xlink:href="#SVGID_1_"  style="overflow:visible;"/>
		</clipPath>
		<g class="st0">
			<defs>
				<rect id="SVGID_3_" x="-30.1" y="-791.5" width="2880" height="3416"/>
			</defs>
			<clipPath id="SVGID_4_">
				<use xlink:href="#SVGID_3_"  style="overflow:visible;"/>
			</clipPath>
			<rect x="17.9" y="7.6" class="st1" width="34.6" height="34.6"/>
		</g>
	</g>
	<g>
		<defs>
			<path id="SVGID_5_" d="M53.5,31.3h-2c-0.4,0-0.8-0.4-0.8-0.8c0-0.4,0.4-0.8,0.8-0.8h2c0.4,0,0.8,0.4,0.8,0.8
				C54.3,31,53.9,31.3,53.5,31.3"/>
		</defs>
		<clipPath id="SVGID_6_">
			<use xlink:href="#SVGID_5_"  style="overflow:visible;"/>
		</clipPath>
		<g class="st2">
			<defs>
				<rect id="SVGID_7_" x="-30.1" y="-791.5" width="2880" height="3416"/>
			</defs>
			<clipPath id="SVGID_8_">
				<use xlink:href="#SVGID_7_"  style="overflow:visible;"/>
			</clipPath>
			<rect x="40.6" y="19.7" class="st3" width="23.6" height="21.6"/>
		</g>
	</g>
	<g>
		<defs>
			<path id="SVGID_9_" d="M50.7,25.8c-0.4,0-0.7-0.2-0.8-0.6c-0.1-0.2,0-0.4,0.1-0.6c0.1-0.2,0.3-0.3,0.5-0.4l1.9-0.5
				c0.4-0.1,0.9,0.1,1,0.6c0.1,0.4-0.1,0.9-0.6,1l-1.9,0.5C50.8,25.8,50.8,25.8,50.7,25.8"/>
		</defs>
		<clipPath id="SVGID_10_">
			<use xlink:href="#SVGID_9_"  style="overflow:visible;"/>
		</clipPath>
		<g class="st4">
			<defs>
				<rect id="SVGID_11_" x="-30.1" y="-791.5" width="2880" height="3416"/>
			</defs>
			<clipPath id="SVGID_12_">
				<use xlink:href="#SVGID_11_"  style="overflow:visible;"/>
			</clipPath>
			<rect x="39.9" y="13.7" class="st5" width="23.5" height="22.1"/>
		</g>
	</g>
	<g>
		<defs>
			<path id="SVGID_13_" d="M48.6,20.6c-0.3,0-0.6-0.2-0.7-0.4c-0.1-0.2-0.1-0.4-0.1-0.6c0.1-0.2,0.2-0.4,0.4-0.5l1.7-1
				c0.4-0.2,0.9-0.1,1.1,0.3c0.2,0.4,0.1,0.9-0.3,1.1l-1.7,1C48.9,20.6,48.7,20.6,48.6,20.6"/>
		</defs>
		<clipPath id="SVGID_14_">
			<use xlink:href="#SVGID_13_"  style="overflow:visible;"/>
		</clipPath>
		<g class="st6">
			<defs>
				<rect id="SVGID_15_" x="-30.1" y="-791.5" width="2880" height="3416"/>
			</defs>
			<clipPath id="SVGID_16_">
				<use xlink:href="#SVGID_15_"  style="overflow:visible;"/>
			</clipPath>
			<rect x="37.8" y="8" class="st7" width="23.3" height="22.6"/>
		</g>
	</g>
	<g>
		<defs>
			<path id="SVGID_17_" d="M45.2,16.2c-0.2,0-0.4-0.1-0.6-0.2c-0.2-0.2-0.2-0.4-0.2-0.6c0-0.2,0.1-0.4,0.2-0.6l1.4-1.4
				c0.3-0.3,0.8-0.3,1.1,0c0.3,0.3,0.3,0.8,0,1.1L45.7,16C45.6,16.1,45.4,16.2,45.2,16.2"/>
		</defs>
		<clipPath id="SVGID_18_">
			<use xlink:href="#SVGID_17_"  style="overflow:visible;"/>
		</clipPath>
		<g class="st8">
			<defs>
				<rect id="SVGID_19_" x="-30.1" y="-791.5" width="2880" height="3416"/>
			</defs>
			<clipPath id="SVGID_20_">
				<use xlink:href="#SVGID_19_"  style="overflow:visible;"/>
			</clipPath>
			<rect x="34.4" y="3.2" class="st9" width="23" height="23"/>
		</g>
	</g>
	<g>
		<defs>
			<path id="SVGID_21_" d="M40.8,12.8c-0.1,0-0.3,0-0.4-0.1c-0.4-0.2-0.5-0.7-0.3-1.1l1-1.7c0.2-0.4,0.7-0.5,1.1-0.3
				c0.4,0.2,0.5,0.7,0.3,1.1l-1,1.7C41.3,12.7,41,12.8,40.8,12.8"/>
		</defs>
		<clipPath id="SVGID_22_">
			<use xlink:href="#SVGID_21_"  style="overflow:visible;"/>
		</clipPath>
		<g class="st10">
			<defs>
				<rect id="SVGID_23_" x="-30.1" y="-791.5" width="2880" height="3416"/>
			</defs>
			<clipPath id="SVGID_24_">
				<use xlink:href="#SVGID_23_"  style="overflow:visible;"/>
			</clipPath>
			<rect x="30" y="-0.5" class="st11" width="22.6" height="23.3"/>
		</g>
	</g>
	<g>
		<defs>
			<path id="SVGID_25_" d="M35.6,10.7c-0.1,0-0.1,0-0.2,0c-0.4-0.1-0.7-0.6-0.6-1l0.5-1.9c0.1-0.4,0.6-0.7,1-0.6
				c0.4,0.1,0.7,0.6,0.6,1l-0.5,1.9C36.3,10.4,36,10.7,35.6,10.7"/>
		</defs>
		<clipPath id="SVGID_26_">
			<use xlink:href="#SVGID_25_"  style="overflow:visible;"/>
		</clipPath>
		<g class="st12">
			<defs>
				<rect id="SVGID_27_" x="-30.1" y="-791.5" width="2880" height="3416"/>
			</defs>
			<clipPath id="SVGID_28_">
				<use xlink:href="#SVGID_27_"  style="overflow:visible;"/>
			</clipPath>
			<rect x="24.8" y="-2.9" class="st13" width="22.1" height="23.5"/>
		</g>
	</g>
	<g>
		<defs>
			<path id="SVGID_29_" d="M30.1,10c-0.4,0-0.8-0.4-0.8-0.8v-2c0-0.4,0.4-0.8,0.8-0.8c0.4,0,0.8,0.4,0.8,0.8v2
				C30.9,9.6,30.5,10,30.1,10"/>
		</defs>
		<clipPath id="SVGID_30_">
			<use xlink:href="#SVGID_29_"  style="overflow:visible;"/>
		</clipPath>
		<g class="st14">
			<defs>
				<rect id="SVGID_31_" x="-30.1" y="-791.5" width="2880" height="3416"/>
			</defs>
			<clipPath id="SVGID_32_">
				<use xlink:href="#SVGID_31_"  style="overflow:visible;"/>
			</clipPath>
			<rect x="19.3" y="-3.7" class="st15" width="21.6" height="23.6"/>
		</g>
	</g>
	<g>
		<defs>
			<path id="SVGID_33_" d="M24.6,10.7c-0.4,0-0.7-0.2-0.8-0.6l-0.5-1.9c-0.1-0.2,0-0.4,0.1-0.6c0.1-0.2,0.3-0.3,0.5-0.4
				c0.4-0.1,0.9,0.2,1,0.6l0.5,1.9c0.1,0.2,0,0.4-0.1,0.6c-0.1,0.2-0.3,0.3-0.5,0.4C24.7,10.7,24.6,10.7,24.6,10.7"/>
		</defs>
		<clipPath id="SVGID_34_">
			<use xlink:href="#SVGID_33_"  style="overflow:visible;"/>
		</clipPath>
		<g class="st16">
			<defs>
				<rect id="SVGID_35_" x="-30.1" y="-791.5" width="2880" height="3416"/>
			</defs>
			<clipPath id="SVGID_36_">
				<use xlink:href="#SVGID_35_"  style="overflow:visible;"/>
			</clipPath>
			<rect x="13.2" y="-2.9" class="st17" width="22.1" height="23.5"/>
		</g>
	</g>
	<g>
		<defs>
			<path id="SVGID_37_" d="M19.4,12.8c-0.3,0-0.5-0.2-0.7-0.4l-1-1.7c-0.2-0.4-0.1-0.9,0.3-1.1c0.4-0.2,0.9-0.1,1.1,0.3l1,1.7
				c0.1,0.2,0.1,0.4,0.1,0.6c-0.1,0.2-0.2,0.4-0.4,0.5C19.7,12.8,19.5,12.8,19.4,12.8"/>
		</defs>
		<clipPath id="SVGID_38_">
			<use xlink:href="#SVGID_37_"  style="overflow:visible;"/>
		</clipPath>
		<g class="st18">
			<defs>
				<rect id="SVGID_39_" x="-30.1" y="-791.5" width="2880" height="3416"/>
			</defs>
			<clipPath id="SVGID_40_">
				<use xlink:href="#SVGID_39_"  style="overflow:visible;"/>
			</clipPath>
			<rect x="7.6" y="-0.5" class="st19" width="22.6" height="23.3"/>
		</g>
	</g>
	<g>
		<defs>
			<path id="SVGID_41_" d="M15,16.2c-0.2,0-0.4-0.1-0.6-0.2L13,14.6c-0.3-0.3-0.3-0.8,0-1.1c0.3-0.3,0.8-0.3,1.1,0l1.4,1.4
				c0.2,0.2,0.2,0.4,0.2,0.6c0,0.2-0.1,0.4-0.2,0.6C15.4,16.1,15.2,16.2,15,16.2"/>
		</defs>
		<clipPath id="SVGID_42_">
			<use xlink:href="#SVGID_41_"  style="overflow:visible;"/>
		</clipPath>
		<g class="st20">
			<defs>
				<rect id="SVGID_43_" x="-30.1" y="-791.5" width="2880" height="3416"/>
			</defs>
			<clipPath id="SVGID_44_">
				<use xlink:href="#SVGID_43_"  style="overflow:visible;"/>
			</clipPath>
			<rect x="2.8" y="3.2" class="st21" width="23" height="23"/>
		</g>
	</g>
	<g>
		<defs>
			<path id="SVGID_45_" d="M11.6,20.6c-0.1,0-0.3,0-0.4-0.1l-1.7-1c-0.4-0.2-0.5-0.7-0.3-1.1c0.2-0.4,0.7-0.5,1.1-0.3l1.7,1
				c0.2,0.1,0.3,0.3,0.4,0.5c0.1,0.2,0,0.4-0.1,0.6C12.1,20.5,11.9,20.6,11.6,20.6"/>
		</defs>
		<clipPath id="SVGID_46_">
			<use xlink:href="#SVGID_45_"  style="overflow:visible;"/>
		</clipPath>
		<g class="st22">
			<defs>
				<rect id="SVGID_47_" x="-30.1" y="-791.5" width="2880" height="3416"/>
			</defs>
			<clipPath id="SVGID_48_">
				<use xlink:href="#SVGID_47_"  style="overflow:visible;"/>
			</clipPath>
			<rect x="-1" y="8" class="st23" width="23.3" height="22.6"/>
		</g>
	</g>
	<g>
		<defs>
			<path id="SVGID_49_" d="M9.4,25.8c-0.1,0-0.1,0-0.2,0l-1.9-0.5c-0.4-0.1-0.7-0.6-0.6-1c0.1-0.4,0.6-0.7,1-0.6l1.9,0.5
				c0.4,0.1,0.7,0.6,0.6,1C10.1,25.5,9.8,25.8,9.4,25.8"/>
		</defs>
		<clipPath id="SVGID_50_">
			<use xlink:href="#SVGID_49_"  style="overflow:visible;"/>
		</clipPath>
		<g class="st24">
			<defs>
				<rect id="SVGID_51_" x="-30.1" y="-791.5" width="2880" height="3416"/>
			</defs>
			<clipPath id="SVGID_52_">
				<use xlink:href="#SVGID_51_"  style="overflow:visible;"/>
			</clipPath>
			<rect x="-3.3" y="13.7" class="st25" width="23.5" height="22.1"/>
		</g>
	</g>
	<g>
		<defs>
			<path id="SVGID_53_" d="M30,0C13.5,0,0,13.5,0,30c0,16.5,13.5,30,30,30s30-13.5,30-30C60,13.5,46.5,0,30,0 M30,57.5
				C14.9,57.5,2.5,45.1,2.5,30C2.5,14.9,14.9,2.5,30,2.5c15.1,0,27.5,12.3,27.5,27.5C57.5,45.1,45.1,57.5,30,57.5"/>
		</defs>
		<clipPath id="SVGID_54_">
			<use xlink:href="#SVGID_53_"  style="overflow:visible;"/>
		</clipPath>
		<g class="st26">
			<defs>
				<rect id="SVGID_55_" x="-30.1" y="-791.5" width="2880" height="3416"/>
			</defs>
			<clipPath id="SVGID_56_">
				<use xlink:href="#SVGID_55_"  style="overflow:visible;"/>
			</clipPath>
			<rect x="-10" y="-10" class="st27" width="80" height="80"/>
		</g>
	</g>
</g>
</svg>
