<?xml version="1.0" encoding="utf-8"?>
<!-- Generator: Adobe Illustrator 19.2.1, SVG Export Plug-In . SVG Version: 6.00 Build 0)  -->
<svg version="1.1" id="Layer_1" xmlns="http://www.w3.org/2000/svg" xmlns:xlink="http://www.w3.org/1999/xlink" x="0px" y="0px"
	 viewBox="0 0 123 260" style="enable-background:new 0 0 123 260;" xml:space="preserve">
<style type="text/css">
	.st0{clip-path:url(#SVGID_2_);}
	.st1{clip-path:url(#SVGID_4_);fill:#FFFFFF;}
	.st2{clip-path:url(#SVGID_6_);}
	.st3{clip-path:url(#SVGID_8_);fill:#FFFFFF;}
	.st4{clip-path:url(#SVGID_10_);}
	.st5{clip-path:url(#SVGID_12_);fill:#FFFFFF;}
	.st6{clip-path:url(#SVGID_14_);}
	.st7{clip-path:url(#SVGID_16_);fill:#FFFFFF;}
	.st8{clip-path:url(#SVGID_18_);}
	.st9{clip-path:url(#SVGID_20_);fill:#FFFFFF;}
	.st10{clip-path:url(#SVGID_22_);}
	.st11{clip-path:url(#SVGID_24_);fill:#FFFFFF;}
</style>
<g>
	<g>
		<defs>
			<path id="SVGID_1_" d="M-1163.4-1058c-33.9,0-61.4-27.6-61.4-61.4c0-33.9,27.5-61.4,61.4-61.4c33.9,0,61.4,27.6,61.4,61.4
				C-1102-1085.5-1129.6-1058-1163.4-1058 M-1163.4-1169.9c-27.8,0-50.5,22.6-50.5,50.5c0,27.8,22.7,50.5,50.5,50.5
				s50.5-22.7,50.5-50.5C-1113-1147.2-1135.6-1169.9-1163.4-1169.9"/>
		</defs>
		<clipPath id="SVGID_2_">
			<use xlink:href="#SVGID_1_"  style="overflow:visible;"/>
		</clipPath>
		<g class="st0">
			<defs>
				<rect id="SVGID_3_" x="-1378.5" y="-1372" width="2880" height="3416"/>
			</defs>
			<clipPath id="SVGID_4_">
				<use xlink:href="#SVGID_3_"  style="overflow:visible;"/>
			</clipPath>
			<rect x="-1234.9" y="-1190.8" class="st1" width="142.8" height="142.8"/>
		</g>
	</g>
	<g>
		<defs>
			<path id="SVGID_5_" d="M-1174.1-1193.3c-28,0-50.8-22.8-50.8-50.8c0-28,22.8-50.7,50.8-50.7c28,0,50.7,22.8,50.7,50.7
				C-1123.4-1216-1146.1-1193.3-1174.1-1193.3 M-1174.1-1283.6c-21.8,0-39.6,17.8-39.6,39.6c0,21.8,17.8,39.6,39.6,39.6
				c21.8,0,39.6-17.7,39.6-39.6C-1134.5-1265.8-1152.3-1283.6-1174.1-1283.6"/>
		</defs>
		<clipPath id="SVGID_6_">
			<use xlink:href="#SVGID_5_"  style="overflow:visible;"/>
		</clipPath>
		<g class="st2">
			<defs>
				<rect id="SVGID_7_" x="-1378.5" y="-1372" width="2880" height="3416"/>
			</defs>
			<clipPath id="SVGID_8_">
				<use xlink:href="#SVGID_7_"  style="overflow:visible;"/>
			</clipPath>
			<rect x="-1234.9" y="-1304.8" class="st3" width="121.5" height="121.5"/>
		</g>
	</g>
	<g>
		<defs>
			<path id="SVGID_9_" d="M-1144.1-1307.6c0-5.7,4.7-10.4,10.4-10.4c5.7,0,10.4,4.7,10.4,10.4c0,5.7-4.7,10.4-10.4,10.4
				C-1139.5-1297.2-1144.1-1301.8-1144.1-1307.6"/>
		</defs>
		<clipPath id="SVGID_10_">
			<use xlink:href="#SVGID_9_"  style="overflow:visible;"/>
		</clipPath>
		<g class="st4">
			<defs>
				<rect id="SVGID_11_" x="-1378.5" y="-1372" width="2880" height="3416"/>
			</defs>
			<clipPath id="SVGID_12_">
				<use xlink:href="#SVGID_11_"  style="overflow:visible;"/>
			</clipPath>
			<rect x="-1154.1" y="-1328" class="st5" width="40.8" height="40.8"/>
		</g>
	</g>
</g>
<g>
	<g>
		<defs>
			<path id="SVGID_13_" d="M61.5,260c-33.9,0-61.4-27.6-61.4-61.4c0-33.9,27.5-61.4,61.4-61.4c33.9,0,61.4,27.6,61.4,61.4
				C122.9,232.4,95.4,260,61.5,260 M61.5,148.1c-27.8,0-50.5,22.6-50.5,50.5c0,27.8,22.7,50.5,50.5,50.5s50.5-22.7,50.5-50.5
				C112,170.7,89.3,148.1,61.5,148.1"/>
		</defs>
		<use xlink:href="#SVGID_13_"  style="overflow:visible;fill-rule:evenodd;clip-rule:evenodd;fill:#FFFFFF;"/>
		<clipPath id="SVGID_14_">
			<use xlink:href="#SVGID_13_"  style="overflow:visible;"/>
		</clipPath>
		<g class="st6">
			<defs>
				<rect id="SVGID_15_" x="-153.6" y="-54.1" width="2880" height="3416"/>
			</defs>
			<use xlink:href="#SVGID_15_"  style="overflow:visible;fill:#FFFFFF;"/>
			<clipPath id="SVGID_16_">
				<use xlink:href="#SVGID_15_"  style="overflow:visible;"/>
			</clipPath>
			<rect x="-9.9" y="127.2" class="st7" width="142.8" height="142.8"/>
		</g>
	</g>
	<g>
		<defs>
			<path id="SVGID_17_" d="M50.8,124.7c-28,0-50.8-22.8-50.8-50.8c0-28,22.8-50.7,50.8-50.7c28,0,50.7,22.8,50.7,50.7
				C101.6,101.9,78.8,124.7,50.8,124.7 M50.8,34.4C29,34.4,11.3,52.1,11.3,74c0,21.8,17.8,39.6,39.6,39.6
				c21.8,0,39.6-17.7,39.6-39.6C90.4,52.1,72.6,34.4,50.8,34.4"/>
		</defs>
		<use xlink:href="#SVGID_17_"  style="overflow:visible;fill-rule:evenodd;clip-rule:evenodd;fill:#FFFFFF;"/>
		<clipPath id="SVGID_18_">
			<use xlink:href="#SVGID_17_"  style="overflow:visible;"/>
		</clipPath>
		<g class="st8">
			<defs>
				<rect id="SVGID_19_" x="-153.6" y="-54.1" width="2880" height="3416"/>
			</defs>
			<use xlink:href="#SVGID_19_"  style="overflow:visible;fill:#FFFFFF;"/>
			<clipPath id="SVGID_20_">
				<use xlink:href="#SVGID_19_"  style="overflow:visible;"/>
			</clipPath>
			<rect x="-9.9" y="13.2" class="st9" width="121.5" height="121.5"/>
		</g>
	</g>
	<g>
		<defs>
			<path id="SVGID_21_" d="M80.8,10.4C80.8,4.7,85.5,0,91.2,0c5.7,0,10.4,4.7,10.4,10.4c0,5.7-4.7,10.4-10.4,10.4
				C85.5,20.8,80.8,16.1,80.8,10.4"/>
		</defs>
		<use xlink:href="#SVGID_21_"  style="overflow:visible;fill-rule:evenodd;clip-rule:evenodd;fill:#FFFFFF;"/>
		<clipPath id="SVGID_22_">
			<use xlink:href="#SVGID_21_"  style="overflow:visible;"/>
		</clipPath>
		<g class="st10">
			<defs>
				<rect id="SVGID_23_" x="-153.6" y="-54.1" width="2880" height="3416"/>
			</defs>
			<use xlink:href="#SVGID_23_"  style="overflow:visible;fill:#FFFFFF;"/>
			<clipPath id="SVGID_24_">
				<use xlink:href="#SVGID_23_"  style="overflow:visible;"/>
			</clipPath>
			<rect x="70.8" y="-10" class="st11" width="40.8" height="40.8"/>
		</g>
	</g>
</g>
</svg>
