<?xml version="1.0" encoding="utf-8"?>
<!-- Generator: Adobe Illustrator 19.2.1, SVG Export Plug-In . SVG Version: 6.00 Build 0)  -->
<svg version="1.1" id="Layer_1" xmlns="http://www.w3.org/2000/svg" xmlns:xlink="http://www.w3.org/1999/xlink" x="0px" y="0px"
	 viewBox="0 0 60 72" style="enable-background:new 0 0 60 72;" xml:space="preserve">
<style type="text/css">
	.st0{clip-path:url(#SVGID_2_);}
	.st1{clip-path:url(#SVGID_4_);fill:#51BD9B;}
	.st2{clip-path:url(#SVGID_6_);}
	.st3{clip-path:url(#SVGID_8_);fill:#51BD9B;}
	.st4{clip-path:url(#SVGID_10_);}
	.st5{clip-path:url(#SVGID_12_);fill:#51BD9B;}
	.st6{clip-path:url(#SVGID_14_);}
	.st7{clip-path:url(#SVGID_16_);fill:#51BD9B;}
	.st8{clip-path:url(#SVGID_18_);}
	.st9{clip-path:url(#SVGID_20_);fill:#51BD9B;}
	.st10{clip-path:url(#SVGID_22_);}
	.st11{clip-path:url(#SVGID_24_);fill:#51BD9B;}
</style>
<g>
	<g>
		<defs>
			<path id="SVGID_1_" d="M35.9,13.8L35.9,13.8c-2.8,0-5.1-0.2-5.2-0.2c-0.3,0-0.6-0.2-0.8-0.5c-0.2-0.3-0.2-0.6,0-0.9
				c0.5-1,5-9.4,7.8-11.2c1-0.6,2.2-1,3.5-1c2.4,0,4.5,1.2,5.8,3.2c1.9,3.2,0.9,7.3-2.3,9.2C44.2,12.9,42.7,13.8,35.9,13.8
				 M32.3,11.9c0.9,0,2.2,0.1,3.6,0.1c5.7,0,7.4-0.7,7.8-0.9c2.3-1.4,3-4.3,1.6-6.6c-0.9-1.5-2.4-2.3-4.1-2.3
				c-0.9,0-1.7,0.2-2.5,0.7C37,3.8,33.9,8.9,32.3,11.9"/>
		</defs>
		<clipPath id="SVGID_2_">
			<use xlink:href="#SVGID_1_"  style="overflow:visible;"/>
		</clipPath>
		<g class="st0">
			<defs>
				<rect id="SVGID_3_" x="-28.5" y="-906.3" width="2880" height="3416"/>
			</defs>
			<clipPath id="SVGID_4_">
				<use xlink:href="#SVGID_3_"  style="overflow:visible;"/>
			</clipPath>
			<rect x="19.8" y="-9.8" class="st1" width="38.1" height="33.7"/>
		</g>
	</g>
	<g>
		<defs>
			<path id="SVGID_5_" d="M24.9,13.8c-6.8,0-8.3-0.9-8.8-1.2c-1.5-0.9-2.6-2.4-3.1-4.1s-0.2-3.5,0.8-5.1c1.2-2,3.4-3.2,5.8-3.2
				c1.2,0,2.4,0.3,3.5,1c2.9,1.7,7.3,10.2,7.8,11.2c0.1,0.3,0.1,0.6,0,0.9c-0.2,0.3-0.4,0.5-0.8,0.5C30,13.7,27.7,13.8,24.9,13.8
				 M19.5,2.1c-1.7,0-3.2,0.9-4.1,2.3c-0.7,1.1-0.9,2.4-0.6,3.6c0.3,1.2,1.1,2.3,2.2,3c0.5,0.3,2.2,0.9,7.8,0.9c1.4,0,2.6,0,3.6-0.1
				c-1.6-3-4.7-8-6.4-9.1C21.3,2.3,20.4,2.1,19.5,2.1"/>
		</defs>
		<clipPath id="SVGID_6_">
			<use xlink:href="#SVGID_5_"  style="overflow:visible;"/>
		</clipPath>
		<g class="st2">
			<defs>
				<rect id="SVGID_7_" x="-28.5" y="-906.3" width="2880" height="3416"/>
			</defs>
			<clipPath id="SVGID_8_">
				<use xlink:href="#SVGID_7_"  style="overflow:visible;"/>
			</clipPath>
			<rect x="2.8" y="-9.8" class="st3" width="38.1" height="33.7"/>
		</g>
	</g>
	<g>
		<defs>
			<path id="SVGID_9_" d="M30,13.8c15.5,0,28.1,12.6,28.1,28.1S45.5,69.9,30,69.9c-15.5,0-28.1-12.6-28.1-28.1S14.5,13.8,30,13.8
				 M30,11.8c-16.6,0-30,13.4-30,30c0,16.6,13.4,30,30,30s30-13.4,30-30C60,25.3,46.6,11.8,30,11.8"/>
		</defs>
		<clipPath id="SVGID_10_">
			<use xlink:href="#SVGID_9_"  style="overflow:visible;"/>
		</clipPath>
		<g class="st4">
			<defs>
				<rect id="SVGID_11_" x="-28.5" y="-906.3" width="2880" height="3416"/>
			</defs>
			<clipPath id="SVGID_12_">
				<use xlink:href="#SVGID_11_"  style="overflow:visible;"/>
			</clipPath>
			<rect x="-10" y="1.8" class="st5" width="80" height="80"/>
		</g>
	</g>
	<g>
		<defs>
			<path id="SVGID_13_" d="M30,26.1c8.7,0,15.8,7.1,15.8,15.8c0,8.7-7.1,15.8-15.8,15.8c-8.7,0-15.8-7.1-15.8-15.8
				C14.2,33.2,21.3,26.1,30,26.1 M30,24.2c-9.8,0-17.7,7.9-17.7,17.7c0,9.8,7.9,17.7,17.7,17.7s17.7-7.9,17.7-17.7
				C47.7,32.1,39.8,24.2,30,24.2"/>
		</defs>
		<clipPath id="SVGID_14_">
			<use xlink:href="#SVGID_13_"  style="overflow:visible;"/>
		</clipPath>
		<g class="st6">
			<defs>
				<rect id="SVGID_15_" x="-28.5" y="-906.3" width="2880" height="3416"/>
			</defs>
			<clipPath id="SVGID_16_">
				<use xlink:href="#SVGID_15_"  style="overflow:visible;"/>
			</clipPath>
			<rect x="2.3" y="14.2" class="st7" width="55.4" height="55.4"/>
		</g>
	</g>
	<g>
		<defs>
			<path id="SVGID_17_" d="M18.7,54c-3-3.2-4.9-7.5-4.9-12.2c0-4.7,1.9-9,4.9-12.2L10,20.9c-5.3,5.4-8.5,12.8-8.5,20.9
				S4.8,57.3,10,62.8L18.7,54z"/>
		</defs>
		<clipPath id="SVGID_18_">
			<use xlink:href="#SVGID_17_"  style="overflow:visible;"/>
		</clipPath>
		<g class="st8">
			<defs>
				<rect id="SVGID_19_" x="-28.5" y="-906.3" width="2880" height="3416"/>
			</defs>
			<clipPath id="SVGID_20_">
				<use xlink:href="#SVGID_19_"  style="overflow:visible;"/>
			</clipPath>
			<rect x="-8.5" y="10.9" class="st9" width="37.2" height="61.8"/>
		</g>
	</g>
	<g>
		<defs>
			<path id="SVGID_21_" d="M41,29.7c3,3.2,4.9,7.5,4.9,12.2c0,4.7-1.9,9-4.9,12.2l8.7,8.7c5.3-5.4,8.5-12.8,8.5-20.9
				c0-8.1-3.2-15.5-8.5-20.9L41,29.7z"/>
		</defs>
		<clipPath id="SVGID_22_">
			<use xlink:href="#SVGID_21_"  style="overflow:visible;"/>
		</clipPath>
		<g class="st10">
			<defs>
				<rect id="SVGID_23_" x="-28.5" y="-906.3" width="2880" height="3416"/>
			</defs>
			<clipPath id="SVGID_24_">
				<use xlink:href="#SVGID_23_"  style="overflow:visible;"/>
			</clipPath>
			<rect x="31" y="10.9" class="st11" width="37.2" height="61.8"/>
		</g>
	</g>
</g>
</svg>
